<svg width="403" height="465" viewBox="277 143 403 465" fill="none" xmlns="http://www.w3.org/2000/svg">
<path d="M478.5 143L679.851 259.25V491.75L478.5 608L277.149 491.75V259.25L478.5 143Z" fill="white"/>
<path d="M478.5 188L640.88 281.75V469.25L478.5 563L316.12 469.25V281.75L478.5 188Z" fill="#344F74"/>
<path d="M478 226L607.904 301V451L478 526L348.096 451V301L478 226Z" fill="white"/>
<path d="M412.4 509V299H497.9C509.3 299 519.6 301.9 528.8 307.7C538.2 313.3 545.7 321 551.3 330.8C556.9 340.6 559.7 351.5 559.7 363.5C559.7 375.5 556.9 386.4 551.3 396.2C545.7 406 538.2 413.9 528.8 419.9C519.6 425.7 509.3 428.6 497.9 428.6H444.8V509H412.4ZM444.8 397.4H497.3C502.7 397.4 507.6 395.9 512 392.9C516.4 389.7 519.9 385.6 522.5 380.6C525.3 375.4 526.7 369.7 526.7 363.5C526.7 357.3 525.3 351.7 522.5 346.7C519.9 341.7 516.4 337.7 512 334.7C507.6 331.7 502.7 330.2 497.3 330.2H444.8V397.4Z" fill="#344F74"/>
<rect x="444.8" y="330.2" width="40" height="239" fill="white"/>
</svg>
