<svg width="926" height="926" viewBox="0 0 926 926" fill="none" xmlns="http://www.w3.org/2000/svg">
<g clip-path="url(#clip0_130_2)">
<path d="M463 0L863.97 231.5V694.5L463 926L62.0302 694.5V231.5L463 0Z" fill="#344F74"/>
<path d="M462.5 90L785.094 276.25V648.75L462.5 835L139.906 648.75V276.25L462.5 90Z" fill="#FAFAFA"/>
<path d="M462.5 162L722.741 312.25V612.75L462.5 763L202.259 612.75V312.25L462.5 162Z" fill="#344F74"/>
<path d="M331.506 736V318.1H501.651C524.337 318.1 544.834 323.871 563.142 335.413C581.848 346.557 596.773 361.88 607.917 381.382C619.061 400.884 624.633 422.575 624.633 446.455C624.633 470.335 619.061 492.026 607.917 511.528C596.773 531.03 581.848 546.751 563.142 558.691C544.834 570.233 524.337 576.004 501.651 576.004H395.982V736H331.506ZM395.982 513.916H500.457C511.203 513.916 520.954 510.931 529.71 504.961C538.466 498.593 545.431 490.434 550.605 480.484C556.177 470.136 558.963 458.793 558.963 446.455C558.963 434.117 556.177 422.973 550.605 413.023C545.431 403.073 538.466 395.113 529.71 389.143C520.954 383.173 511.203 380.188 500.457 380.188H395.982V513.916Z" fill="#FAFAFA"/>
<rect x="396" y="381" width="79" height="475" fill="#344F74"/>
</g>
<defs>
<clipPath id="clip0_130_2">
<rect width="926" height="926" fill="white"/>
</clipPath>
</defs>
</svg>
